Coordinates
version=1
nRows=60
nColumns=12
inDegrees=yes

Units are S.I. units (second, meters, Newtons, ...)
Angles are in degrees

endheader
time	SC_y	SC_z	SC_x	AC_y	AC_z	AC_x	GH_y	GH_z	GH_yy	EL_x	PS_y
       0.0              -17.71           1.41          72.95          49.94         -8.315          6.798          177.1          77.73          -83.8           87.5          32.87
   0.04135              -17.71          1.411          72.95          49.94         -8.313          6.798          177.0          77.73         -83.81           87.5          32.89
   0.08269              -17.71          1.412          72.95          49.94         -8.311          6.798          177.0          77.73         -83.82          87.49           32.9
     0.124              -17.72          1.413          72.95          49.95         -8.309          6.798          176.9          77.73         -83.83          87.49          32.92
    0.1654              -17.72          1.414          72.95          49.95         -8.306          6.798          176.9          77.73         -83.85          87.48          32.94
    0.2067              -17.72          1.416          72.95          49.95         -8.304          6.798          176.9          77.73         -83.86          87.48          32.96
    0.2481              -17.73          1.417          72.95          49.96         -8.301          6.798          176.8          77.73         -83.88          87.47          32.98
    0.2894              -17.73          1.418          72.95          49.96         -8.298          6.798          176.7          77.73          -83.9          87.46           33.0
    0.3308              -17.74           1.42          72.95          49.97         -8.295          6.798          176.7          77.73         -83.92          87.45          33.03
    0.3721              -17.74          1.422          72.95          49.97         -8.291          6.798          176.6          77.73         -83.93          87.45          33.05
    0.4135              -17.75          1.424          72.95          49.98         -8.287          6.798          176.6          77.73         -83.96          87.44          33.08
    0.4548              -17.75          1.426          72.95          49.98         -8.284          6.798          176.5          77.73         -83.98          87.43          33.11
    0.4961              -17.76          1.428          72.95          49.99         -8.279          6.798          176.4          77.73          -84.0          87.42          33.14
    0.5375              -17.76           1.43          72.94           50.0         -8.275          6.798          176.3          77.73         -84.03          87.41          33.17
    0.5788              -17.77          1.432          72.94           50.0          -8.27          6.798          176.2          77.73         -84.06          87.39          33.21
    0.6202              -17.78          1.435          72.94          50.01         -8.264          6.798          176.1          77.73         -84.09          87.38          33.25
    0.6615              -17.78          1.438          72.94          50.02         -8.258          6.798          176.0          77.73         -84.12          87.37          33.29
    0.7029              -17.79          1.441          72.94          50.03         -8.252          6.797          175.9          77.73         -84.16          87.35          33.34
    0.7442               -17.8          1.445          72.94          50.04         -8.245          6.797          175.8          77.73          -84.2          87.33          33.39
    0.7856              -17.81          1.448          72.94          50.05         -8.237          6.797          175.6          77.73         -84.24          87.31          33.45
    0.8269              -17.83          1.453          72.94          50.06         -8.229          6.797          175.5          77.73         -84.29          87.29          33.51
    0.8682              -17.84          1.457          72.94          50.07         -8.219          6.797          175.3          77.73         -84.35          87.27          33.58
    0.9096              -17.85          1.462          72.94          50.09         -8.209          6.797          175.1          77.73          -84.4          87.25          33.65
    0.9509              -17.87          1.468          72.94           50.1         -8.198          6.797          174.9          77.73         -84.47          87.22          33.74
    0.9923              -17.88          1.474          72.94          50.12         -8.185          6.797          174.7          77.73         -84.54          87.19          33.83
     1.034               -17.9          1.481          72.94          50.14         -8.171          6.797          174.4          77.73         -84.62          87.15          33.93
     1.075              -17.93          1.489          72.93          50.16         -8.155          6.797          174.1          77.72         -84.71          87.12          34.05
     1.116              -17.95          1.498          72.93          50.19         -8.138          6.797          173.8          77.72         -84.82          87.07          34.18
     1.158              -17.98          1.508          72.93          50.22         -8.118          6.796          173.5          77.72         -84.93          87.02          34.33
     1.199              -18.01          1.519          72.93          50.25         -8.095          6.796          173.0          77.72         -85.06          86.97           34.5
      1.24              -18.04          1.532          72.93          50.28         -8.069          6.796          172.6          77.72         -85.21          86.91          34.69
     1.282              -18.08          1.547          72.92          50.33         -8.039          6.796          172.0          77.72         -85.38          86.83          34.91
     1.323              -18.13          1.564          72.92          50.37         -8.005          6.796          171.4          77.72         -85.58          86.75          35.16
     1.364              -18.19          1.584          72.92          50.43         -7.965          6.795          170.7          77.71         -85.81          86.65          35.46
     1.406              -18.25          1.607          72.91           50.5         -7.918          6.795          169.8          77.71         -86.08          86.54           35.8
     1.447              -18.33          1.634          72.91          50.57         -7.862          6.795          168.8          77.71         -86.39          86.41          36.21
     1.488              -18.42          1.667           72.9          50.67         -7.797          6.794          167.6          77.71         -86.77          86.25          36.69
      1.53              -18.52          1.706           72.9          50.78         -7.718          6.793          166.2           77.7         -87.22          86.06          37.27
     1.571              -18.65          1.753          72.89          50.91         -7.623          6.793          164.4           77.7         -87.76          85.83          37.97
     1.612              -18.81          1.811          72.88          51.07         -7.507          6.792          162.3          77.69         -88.43          85.55          38.82
     1.654              -19.01          1.882          72.87          51.28         -7.363          6.791          159.7          77.68         -89.25           85.2          39.88
     1.695              -19.25           1.97          72.85          51.53         -7.185          6.789          156.5          77.67         -90.28          84.77           41.2
     1.736              -19.56          2.082          72.83          51.84         -6.959          6.788          152.3          77.66         -91.57          84.22          42.86
     1.778              -19.95          2.224          72.81          52.25         -6.673          6.785          147.1          77.64         -93.21          83.53          44.96
     1.819              -20.45          2.406          72.77          52.76         -6.306          6.783          140.4          77.62         -95.31          82.64          47.66
     1.861               -21.1          2.639          72.73          53.42         -5.836          6.779          131.9           77.6         -98.01           81.5          51.13
     1.902              -21.92          2.937          72.68          54.27         -5.235          6.775          120.9          77.57         -101.5          80.04          55.55
     1.943              -22.95          3.311          72.62          55.33         -4.479          6.769          107.1          77.53         -105.8          78.22          61.11
     1.985              -24.21          3.768          72.54          56.62         -3.559          6.762          90.35          77.48         -111.1          75.99          67.89
     2.026              -25.67          4.297          72.44          58.12         -2.491          6.754          70.89          77.42         -117.2           73.4          75.75
     2.067              -27.25           4.87          72.35          59.75         -1.336          6.745          49.83          77.35         -123.8           70.6          84.26
     2.109              -28.83          5.443          72.25          61.37        -0.1799          6.736          28.76          77.29         -130.4           67.8          92.77
      2.15              -30.29          5.972          72.15          62.87         0.8874          6.728          9.304          77.23         -136.6          65.22          100.6
     2.191              -31.55          6.428          72.07          64.16          1.808          6.721         -7.481          77.18         -141.8          62.99          107.4
     2.233              -32.58          6.803          72.01          65.22          2.564          6.715         -21.26          77.14         -146.2          61.16          113.0
     2.274               -33.4          7.101          71.96          66.07          3.165          6.711         -32.21          77.11         -149.6          59.71          117.4
     2.315              -34.04          7.334          71.92          66.73          3.635          6.707         -40.79          77.09         -152.3          58.57          120.9
     2.357              -34.55          7.516          71.88          67.24          4.002          6.704         -47.47          77.07         -154.4          57.68          123.6
     2.398              -34.94          7.658          71.86          67.65          4.288          6.702         -52.69          77.05         -156.0          56.98          125.7
     2.439              -35.24          7.769          71.84          67.96          4.513            6.7          -56.8          77.04         -157.3          56.44          127.3
